<svg width="153" height="24" viewBox="0 0 153 24" fill="none" xmlns="http://www.w3.org/2000/svg">
<path d="M8.955 23.3C7.355 23.3 5.945 22.96 4.725 22.28C3.505 21.6 2.545 20.66 1.845 19.46C1.165 18.26 0.824999 16.89 0.824999 15.35C0.824999 13.81 1.165 12.44 1.845 11.24C2.545 10.04 3.505 9.1 4.725 8.42C5.945 7.74 7.355 7.4 8.955 7.4C10.295 7.4 11.495 7.65 12.555 8.15C13.635 8.63 14.515 9.3 15.195 10.16C15.895 11.02 16.345 12.03 16.545 13.19H12.195C11.975 12.45 11.575 11.89 10.995 11.51C10.435 11.13 9.775 10.94 9.015 10.94C8.295 10.94 7.665 11.12 7.125 11.48C6.605 11.84 6.205 12.35 5.925 13.01C5.645 13.67 5.505 14.45 5.505 15.35C5.505 16.25 5.645 17.03 5.925 17.69C6.205 18.35 6.605 18.86 7.125 19.22C7.665 19.58 8.295 19.76 9.015 19.76C9.775 19.76 10.435 19.57 10.995 19.19C11.575 18.81 11.975 18.25 12.195 17.51H16.545C16.345 18.67 15.895 19.68 15.195 20.54C14.515 21.4 13.635 22.08 12.555 22.58C11.495 23.06 10.295 23.3 8.955 23.3ZM24.2428 23.3C22.5628 23.3 21.0828 22.97 19.8028 22.31C18.5428 21.63 17.5528 20.69 16.8328 19.49C16.1328 18.27 15.7828 16.87 15.7828 15.29C15.7828 13.71 16.1328 12.33 16.8328 11.15C17.5528 9.97 18.5428 9.05 19.8028 8.39C21.0828 7.73 22.5628 7.4 24.2428 7.4C25.9428 7.4 27.4228 7.73 28.6828 8.39C29.9628 9.05 30.9528 9.97 31.6528 11.15C32.3528 12.33 32.7028 13.71 32.7028 15.29C32.7028 16.87 32.3428 18.27 31.6228 19.49C30.9228 20.69 29.9328 21.63 28.6528 22.31C27.3928 22.97 25.9228 23.3 24.2428 23.3ZM24.2428 19.76C24.9428 19.76 25.5728 19.58 26.1328 19.22C26.7128 18.86 27.1728 18.35 27.5128 17.69C27.8528 17.01 28.0228 16.2 28.0228 15.26C28.0228 13.88 27.6528 12.82 26.9128 12.08C26.1928 11.32 25.3028 10.94 24.2428 10.94C23.1828 10.94 22.2828 11.32 21.5428 12.08C20.8228 12.84 20.4628 13.9 20.4628 15.26C20.4628 16.2 20.6328 17.01 20.9728 17.69C21.3128 18.35 21.7628 18.86 22.3228 19.22C22.9028 19.58 23.5428 19.76 24.2428 19.76ZM40.1088 23.33C38.1488 23.33 36.6888 22.86 35.7288 21.92C34.7888 20.96 34.3188 19.51 34.3188 17.57V4.28L38.8188 2.6V17.72C38.8188 18.4 39.0088 18.91 39.3888 19.25C39.7688 19.59 40.3588 19.76 41.1588 19.76C41.4588 19.76 41.7388 19.73 41.9988 19.67C42.2588 19.61 42.5188 19.54 42.7788 19.46V22.88C42.5188 23.02 42.1488 23.13 41.6688 23.21C41.2088 23.29 40.6888 23.33 40.1088 23.33ZM31.4688 11.12V7.7H42.7788V11.12H31.4688ZM50.4084 23.3C48.7284 23.3 47.2484 22.97 45.9684 22.31C44.7084 21.63 43.7184 20.69 42.9984 19.49C42.2984 18.27 41.9484 16.87 41.9484 15.29C41.9484 13.71 42.2984 12.33 42.9984 11.15C43.7184 9.97 44.7084 9.05 45.9684 8.39C47.2484 7.73 48.7284 7.4 50.4084 7.4C52.1084 7.4 53.5884 7.73 54.8484 8.39C56.1284 9.05 57.1184 9.97 57.8184 11.15C58.5184 12.33 58.8684 13.71 58.8684 15.29C58.8684 16.87 58.5084 18.27 57.7884 19.49C57.0884 20.69 56.0984 21.63 54.8184 22.31C53.5584 22.97 52.0884 23.3 50.4084 23.3ZM50.4084 19.76C51.1084 19.76 51.7384 19.58 52.2984 19.22C52.8784 18.86 53.3384 18.35 53.6784 17.69C54.0184 17.01 54.1884 16.2 54.1884 15.26C54.1884 13.88 53.8184 12.82 53.0784 12.08C52.3584 11.32 51.4684 10.94 50.4084 10.94C49.3484 10.94 48.4484 11.32 47.7084 12.08C46.9884 12.84 46.6284 13.9 46.6284 15.26C46.6284 16.2 46.7984 17.01 47.1384 17.69C47.4784 18.35 47.9284 18.86 48.4884 19.22C49.0684 19.58 49.7084 19.76 50.4084 19.76ZM66.3839 23.3C64.7839 23.3 63.3739 22.96 62.1539 22.28C60.9339 21.6 59.9739 20.66 59.2739 19.46C58.5939 18.26 58.2539 16.89 58.2539 15.35C58.2539 13.81 58.5939 12.44 59.2739 11.24C59.9739 10.04 60.9339 9.1 62.1539 8.42C63.3739 7.74 64.7839 7.4 66.3839 7.4C67.7239 7.4 68.9239 7.65 69.9839 8.15C71.0639 8.63 71.9439 9.3 72.6239 10.16C73.3239 11.02 73.7739 12.03 73.9739 13.19H69.6239C69.4039 12.45 69.0039 11.89 68.4239 11.51C67.8639 11.13 67.2039 10.94 66.4439 10.94C65.7239 10.94 65.0939 11.12 64.5539 11.48C64.0339 11.84 63.6339 12.35 63.3539 13.01C63.0739 13.67 62.9339 14.45 62.9339 15.35C62.9339 16.25 63.0739 17.03 63.3539 17.69C63.6339 18.35 64.0339 18.86 64.5539 19.22C65.0939 19.58 65.7239 19.76 66.4439 19.76C67.2039 19.76 67.8639 19.57 68.4239 19.19C69.0039 18.81 69.4039 18.25 69.6239 17.51H73.9739C73.7739 18.67 73.3239 19.68 72.6239 20.54C71.9439 21.4 71.0639 22.08 69.9839 22.58C68.9239 23.06 67.7239 23.3 66.3839 23.3ZM81.6717 23.3C79.9917 23.3 78.5117 22.97 77.2317 22.31C75.9717 21.63 74.9817 20.69 74.2617 19.49C73.5617 18.27 73.2117 16.87 73.2117 15.29C73.2117 13.71 73.5617 12.33 74.2617 11.15C74.9817 9.97 75.9717 9.05 77.2317 8.39C78.5117 7.73 79.9917 7.4 81.6717 7.4C83.3717 7.4 84.8517 7.73 86.1117 8.39C87.3917 9.05 88.3817 9.97 89.0817 11.15C89.7817 12.33 90.1317 13.71 90.1317 15.29C90.1317 16.87 89.7717 18.27 89.0517 19.49C88.3517 20.69 87.3617 21.63 86.0817 22.31C84.8217 22.97 83.3517 23.3 81.6717 23.3ZM81.6717 19.76C82.3717 19.76 83.0017 19.58 83.5617 19.22C84.1417 18.86 84.6017 18.35 84.9417 17.69C85.2817 17.01 85.4517 16.2 85.4517 15.26C85.4517 13.88 85.0817 12.82 84.3417 12.08C83.6217 11.32 82.7317 10.94 81.6717 10.94C80.6117 10.94 79.7117 11.32 78.9717 12.08C78.2517 12.84 77.8917 13.9 77.8917 15.26C77.8917 16.2 78.0617 17.01 78.4017 17.69C78.7417 18.35 79.1917 18.86 79.7517 19.22C80.3317 19.58 80.9717 19.76 81.6717 19.76ZM93.487 23L88.807 7.7H93.547L95.887 18.38H95.767L98.707 7.7H102.907L105.877 18.38H105.757L108.067 7.7H112.687L108.007 23H103.687L100.687 12.35H100.807L97.807 23H93.487ZM112.677 23V7.7H117.177V23H112.677ZM112.527 5.66V0.8H117.327V5.66H112.527ZM118.963 23V7.7H123.373V11.3H123.463V23H118.963ZM129.613 23V13.52C129.613 12.68 129.393 12.05 128.953 11.63C128.533 11.21 127.913 11 127.093 11C126.393 11 125.763 11.16 125.203 11.48C124.663 11.8 124.233 12.24 123.913 12.8C123.613 13.36 123.463 14.02 123.463 14.78L123.073 11.09C123.573 9.97 124.303 9.08 125.263 8.42C126.243 7.74 127.443 7.4 128.863 7.4C130.563 7.4 131.863 7.88 132.763 8.84C133.663 9.78 134.113 11.05 134.113 12.65V23H129.613ZM146.567 23V19.61L146.867 19.67C146.667 20.77 146.067 21.65 145.067 22.31C144.087 22.97 142.907 23.3 141.527 23.3C140.127 23.3 138.907 22.98 137.867 22.34C136.847 21.68 136.057 20.76 135.497 19.58C134.937 18.4 134.657 17.01 134.657 15.41C134.657 13.79 134.947 12.38 135.527 11.18C136.107 9.98 136.917 9.05 137.957 8.39C139.017 7.73 140.247 7.4 141.647 7.4C143.107 7.4 144.287 7.74 145.187 8.42C146.107 9.1 146.647 10.03 146.807 11.21L146.477 11.24V1.4H150.977V23H146.567ZM142.967 19.7C144.027 19.7 144.887 19.33 145.547 18.59C146.207 17.83 146.537 16.75 146.537 15.35C146.537 13.95 146.197 12.88 145.517 12.14C144.857 11.38 143.987 11 142.907 11C141.867 11 141.007 11.38 140.327 12.14C139.667 12.9 139.337 13.98 139.337 15.38C139.337 16.78 139.667 17.85 140.327 18.59C141.007 19.33 141.887 19.7 142.967 19.7Z" fill="#1C2024"/>
</svg>
